<?xml version="1.0" encoding="UTF-8"?>
<!DOCTYPE svg PUBLIC "-//W3C//DTD SVG 1.1//EN" "http://www.w3.org/Graphics/SVG/1.1/DTD/svg11.dtd">
<!-- Creator: CorelDRAW X7 -->
<svg xmlns="http://www.w3.org/2000/svg" xml:space="preserve" width="91.8632mm" height="62.5732mm" version="1.1" style="shape-rendering:geometricPrecision; text-rendering:geometricPrecision; image-rendering:optimizeQuality; fill-rule:evenodd; clip-rule:evenodd"
viewBox="0 0 8716 5937"
 xmlns:xlink="http://www.w3.org/1999/xlink">
 <defs>
  <style type="text/css">
   <![CDATA[
    .fil1 {fill:#FEFEFE}
    .fil5 {fill:#DBD7D4}
    .fil3 {fill:#F08000}
    .fil2 {fill:#FEFEFE;fill-rule:nonzero}
    .fil4 {fill:#FEFEFE;fill-opacity:0.411765}
    .fil0 {fill:url(#id2)}
   ]]>
  </style>
    <mask id="id0">
  <linearGradient id="id1" gradientUnits="userSpaceOnUse" x1="4308.39" y1="1952.89" x2="341.988" y2="1300.19">
   <stop offset="0" style="stop-opacity:0; stop-color:white"/>
   <stop offset="0.219608" style="stop-opacity:-127.502; stop-color:white"/>
   <stop offset="1" style="stop-opacity:1; stop-color:white"/>
  </linearGradient>
     <rect style="fill:url(#id1)" x="-9" y="1001" width="8735" height="1241"/>
    </mask>
  <linearGradient id="id2" gradientUnits="userSpaceOnUse" x1="466.547" y1="4756.97" x2="8583.45" y2="439.117">
   <stop offset="0" style="stop-opacity:1; stop-color:#C70D32"/>
   <stop offset="0.74902" style="stop-opacity:1; stop-color:#DB4619"/>
   <stop offset="1" style="stop-opacity:1; stop-color:#F08000"/>
  </linearGradient>
 </defs>
 <g id="Слой_x0020_1">
  <metadata id="CorelCorpID_0Corel-Layer"/>
  <g id="_628037832">
   <path class="fil0" d="M600 0l7516 0c330,0 600,270 600,600l0 4737c0,330 -270,600 -600,600l-7516 0c-330,0 -600,-270 -600,-600l0 -4737c0,-330 270,-600 600,-600z"/>
   <g>
    <path class="fil1" d="M809 4674c7,-23 40,-14 35,9l-19 57c-1,7 9,9 12,4l51 -93c11,-23 45,-10 33,15l-47 87c-3,5 5,9 9,5l59 -98c13,-22 44,-6 34,17l-63 101c-4,6 8,13 13,8l52 -73c13,-17 44,-2 30,23l-85 118c-5,7 -1,15 7,14l57 -16c26,-4 36,31 16,41 -52,26 -94,43 -121,47 -36,45 -44,95 -32,137 22,140 161,229 299,212 -47,31 -104,49 -166,47 -225,-7 -369,-206 -233,-475 1,-24 11,-52 22,-81 15,-40 25,-76 37,-106z"/>
    <path class="fil1" d="M855 5091c18,62 75,95 154,85 132,-16 171,-202 33,-272 16,-42 5,-73 -42,-89l48 -69c66,13 122,45 166,94 126,160 83,351 -52,440 -138,11 -271,-58 -307,-189z"/>
    <path class="fil2" d="M1539 5285l-46 0 0 -161 -66 0 0 161 -46 0 0 -202 158 0 0 202zm190 -72c0,20 -6,38 -19,53 -13,16 -30,24 -50,24 -18,0 -33,-7 -45,-20l0 77 -42 0 0 -208 40 0 0 17c11,-14 26,-22 46,-22 21,0 39,8 52,24 12,14 18,33 18,55zm-115 -1c0,11 3,21 10,29 7,8 16,11 28,11 11,0 20,-4 27,-12 7,-8 11,-17 11,-28 0,-11 -4,-21 -11,-29 -7,-8 -16,-11 -27,-11 -12,0 -21,3 -28,11 -7,8 -10,17 -10,29zm208 -78c18,0 33,5 45,14 13,10 22,22 27,39 3,9 5,20 5,32 0,1 0,3 -1,5l-113 0c4,21 17,32 38,32 16,0 26,-6 30,-17l43 0c-6,16 -16,28 -29,37 -13,9 -28,14 -44,14 -23,0 -41,-8 -56,-22 -14,-15 -21,-33 -21,-56 0,-21 7,-39 22,-55 15,-15 33,-23 54,-23zm37 62c-5,-18 -17,-28 -36,-28 -20,0 -32,10 -37,28l73 0zm200 89l-42 0 0 -87 -58 87 -37 0 0 -146 43 0 0 84 57 -84 37 0 0 146zm205 0l-40 0 1 -90 -35 90 -27 0 -34 -90 1 90 -40 0 0 -146 54 0 33 94 32 -94 55 0 0 146zm164 -146l-78 208 -42 0 27 -69 -55 -139 42 0 33 91 31 -91 42 0zm231 177l-34 0 0 -31 -180 0 0 -146 40 0 0 113 41 0 0 -113 36 0 0 113 41 0 0 -113 40 0 0 113 16 0 0 64zm84 -182c18,0 33,5 46,14 12,10 21,22 27,39 3,9 4,20 4,32 0,1 0,3 0,5l-113 0c3,21 16,32 38,32 15,0 25,-6 30,-17l42 0c-6,16 -16,28 -29,37 -13,9 -27,14 -44,14 -22,0 -41,-8 -55,-22 -15,-15 -22,-33 -22,-56 0,-21 8,-39 23,-55 14,-15 32,-23 53,-23zm37 62c-4,-18 -17,-28 -36,-28 -19,0 -31,10 -37,28l73 0zm209 35c-4,18 -14,32 -27,43 -13,10 -29,16 -48,16 -22,0 -40,-8 -55,-23 -15,-15 -23,-33 -23,-55 0,-22 8,-41 22,-56 15,-14 33,-22 55,-22 20,0 36,6 50,16 13,10 22,24 26,43l-41 0c-4,-8 -8,-13 -14,-17 -5,-3 -12,-4 -21,-4 -11,0 -20,4 -27,11 -6,8 -9,18 -9,29 0,11 3,21 10,29 7,8 16,11 27,11 17,0 29,-7 34,-21l41 0zm90 54l-43 0 0 -113 -36 0 0 -33 114 0 0 33 -35 0 0 113zm178 -42c0,28 -20,42 -61,42l-62 0 0 -146 63 0c35,0 53,13 53,39 0,13 -6,23 -18,29l0 0c17,7 25,19 25,36zm-49 -61c0,-9 -5,-14 -16,-14l-17 0 0 29 16 0c11,0 17,-5 17,-15zm5 59c0,-11 -7,-17 -20,-17l-18 0 0 30 20 0c12,0 18,-4 18,-13z"/>
    <path class="fil2" d="M1591 4959c-8,23 -20,40 -37,53 -18,14 -38,21 -61,21 -30,0 -55,-10 -76,-31 -21,-20 -31,-45 -31,-75 0,-29 10,-54 31,-74 20,-20 45,-30 74,-30 24,0 45,6 63,20 18,13 30,31 37,54l-50 0c-11,-22 -28,-33 -50,-33 -17,0 -31,6 -42,18 -11,12 -17,27 -17,45 0,17 6,32 17,45 11,13 25,19 42,19 23,0 40,-10 50,-32l50 0zm92 -81c23,0 42,8 57,22 15,14 22,33 22,55 0,23 -7,41 -22,56 -15,15 -34,22 -57,22 -22,0 -41,-8 -56,-22 -15,-15 -22,-33 -22,-56 0,-22 7,-40 22,-55 15,-14 34,-22 56,-22zm38 78c0,-12 -3,-21 -10,-29 -7,-8 -16,-12 -28,-12 -11,0 -20,4 -27,12 -7,8 -11,17 -11,29 0,11 4,21 11,28 7,8 16,12 27,12 11,0 21,-4 28,-12 7,-7 10,-17 10,-28zm195 -78c22,0 40,8 55,22 14,14 21,33 21,55 0,22 -7,41 -22,56 -14,14 -32,22 -54,22 -19,0 -35,-6 -49,-18 -13,-12 -22,-27 -24,-45l-15 0 0 59 -42 0 0 -146 42 0 0 55 15 0c3,-18 12,-32 25,-43 13,-11 29,-17 48,-17zm37 78c0,-11 -4,-21 -11,-29 -6,-8 -15,-12 -26,-12 -11,0 -20,4 -26,12 -7,8 -10,18 -10,29 0,10 3,20 10,28 7,8 15,12 26,12 10,0 19,-4 26,-12 7,-8 11,-17 11,-28zm183 31c0,16 -7,28 -22,36 -12,7 -27,10 -44,10 -17,0 -31,-4 -42,-12 -13,-8 -20,-21 -21,-37l39 0c1,10 9,16 24,16 17,0 26,-5 26,-15 0,-8 -5,-13 -14,-15 -4,-1 -12,-1 -23,-1l0 -29c10,0 17,0 20,-1 8,-2 13,-6 13,-13 0,-10 -7,-15 -20,-15 -13,0 -20,4 -20,13l-39 0c3,-30 22,-46 59,-46 16,0 29,3 39,9 13,8 19,19 19,34 0,14 -6,24 -19,30 17,6 25,18 25,36z"/>
   </g>
   <polygon class="fil3" style="mask:url(#id0)" points="0,1010 8716,1010 8716,2232 0,2232 "/>
   <g>
    <g>
     <path class="fil4" d="M6423 5559c23,-25 60,7 40,34l-61 63c-5,7 6,17 13,12l124 -89c30,-23 65,15 34,41l-116 82c-6,5 2,16 9,13l138 -91c30,-20 60,21 33,43l-144 92c-9,5 2,22 11,19l113 -62c28,-14 59,25 25,49l-184 99c-11,6 -11,19 1,22l83 16c18,5 25,21 23,35l-499 0c38,-60 92,-118 164,-173 15,-30 46,-60 79,-90 45,-43 80,-83 114,-115l0 0z"/>
     <path class="fil4" d="M6618 5937c2,-24 -10,-49 -36,-75l105 -61c50,39 90,84 119,136l-188 0z"/>
    </g>
    <g>
     <path class="fil4" d="M8566 1125c23,-24 61,8 40,34l-60 63c-6,7 6,17 13,12l124 -89c11,-9 24,-8 33,-3l0 45 -115 82c-7,5 1,15 8,12l107 -70 0 63 -80 51c-8,6 2,23 12,19l68 -37 0 61 -114 62c-11,6 -11,19 0,22l84 16c36,11 27,62 -6,63 -83,1 -149,-3 -185,-15 -75,35 -117,95 -128,158 -59,195 66,396 255,461 -81,11 -165,-2 -245,-43 -286,-150 -349,-498 -3,-761 15,-31 46,-60 78,-91 45,-43 81,-83 114,-115l0 0z"/>
     <path class="fil4" d="M8365 1694c-15,92 38,171 145,207 80,27 156,1 206,-52l0 266c-23,8 -47,13 -72,17 -185,-73 -314,-245 -279,-438l0 0z"/>
    </g>
    <g>
     <g>
      <path class="fil4" d="M8030 2234c23,-25 61,7 40,34l-60 63c-5,7 6,17 13,11l124 -88c29,-23 65,15 34,40l-116 83c-7,5 1,15 8,13l139 -91c30,-20 60,21 33,43l-145 92c-8,5 2,22 12,19l113 -63c28,-14 59,25 25,49l-184 100c-11,6 -11,19 0,22l84 16c36,10 27,62 -6,62 -83,1 -148,-3 -185,-14 -75,34 -117,94 -128,157 -59,195 66,397 255,461 -80,11 -165,-1 -244,-43 -287,-150 -350,-498 -4,-761 15,-30 46,-60 78,-91 45,-42 81,-83 114,-114l0 0z"/>
      <path class="fil4" d="M7829 2803c-15,92 38,170 146,207 181,62 348,-156 214,-332 46,-45 51,-92 1,-142l105 -60c77,60 129,135 156,227 63,286 -112,506 -343,537 -185,-72 -314,-244 -279,-437l0 0z"/>
     </g>
     <path class="fil4" d="M8716 3572c-105,-133 -118,-312 0,-480l0 480z"/>
    </g>
    <g>
     <g>
      <path class="fil4" d="M7493 3342c24,-25 61,7 40,34l-60 62c-5,8 6,17 13,12l124 -89c29,-22 65,16 34,41l-116 83c-7,5 1,15 8,12l139 -90c30,-20 60,21 33,43l-145 92c-8,5 2,22 12,18l113 -62c28,-14 59,25 25,49l-184 100c-11,6 -11,19 0,22l84 16c36,10 27,62 -6,62 -83,1 -148,-3 -185,-14 -75,34 -117,94 -128,157 -59,195 66,396 255,461 -80,11 -165,-1 -244,-43 -287,-150 -350,-498 -4,-761 15,-30 46,-60 79,-91 44,-43 80,-83 113,-114l0 0z"/>
      <path class="fil4" d="M7292 3911c-15,92 38,170 146,207 181,62 348,-156 214,-332 46,-45 51,-92 1,-142l105 -60c77,60 130,135 156,227 63,286 -112,506 -343,537 -185,-72 -314,-244 -279,-437l0 0z"/>
     </g>
     <g>
      <path class="fil4" d="M8524 3840c23,-25 60,7 40,34l-60 63c-6,7 5,17 13,11l123 -88c30,-23 65,15 34,41l-116 82c-6,5 2,16 9,13l138 -91c4,-2 8,-4 11,-5l0 62 -122 78c-9,5 2,22 12,19l110 -61 0 62 -157 85c-11,6 -11,19 1,22l83 16c36,10 28,62 -6,62 -83,1 -148,-3 -185,-14 -75,34 -117,94 -127,158 -60,194 66,396 255,460 -81,11 -166,-1 -245,-43 -286,-150 -349,-498 -3,-761 14,-30 46,-60 78,-90 45,-43 80,-84 114,-115l0 0z"/>
      <path class="fil4" d="M8323 4409c-16,92 37,170 145,207 108,37 211,-25 248,-119l0 316c-36,17 -74,28 -114,33 -186,-72 -314,-244 -279,-437l0 0zm393 -65c-8,-20 -19,-41 -34,-60 17,-17 29,-34 34,-51l0 111zm0 -152c-5,-16 -15,-32 -33,-49l33 -19 0 68z"/>
     </g>
    </g>
    <g>
     <g>
      <path class="fil4" d="M6957 4450c24,-24 61,7 41,34l-61 63c-5,7 6,17 13,12l124 -89c30,-23 65,15 34,41l-116 83c-7,4 2,15 8,12l139 -91c30,-20 60,21 33,43l-144 92c-9,5 2,23 11,19l113 -62c28,-14 59,25 25,49l-184 99c-11,6 -11,19 1,22l83 16c36,11 27,62 -6,62 -83,1 -148,-2 -185,-14 -75,35 -117,95 -127,158 -60,195 65,396 255,461 -81,11 -166,-2 -245,-44 -286,-150 -350,-497 -4,-761 15,-30 46,-60 79,-90 44,-43 80,-83 113,-115l0 0z"/>
      <path class="fil4" d="M6756 5019c-15,92 38,171 146,207 181,62 348,-156 214,-332 46,-45 52,-91 1,-141l105 -61c77,60 130,136 157,227 62,287 -113,506 -343,537 -186,-72 -315,-244 -280,-437l0 0z"/>
     </g>
     <g>
      <path class="fil4" d="M7988 4948c23,-24 60,8 40,34l-60 63c-6,7 5,17 13,12l123 -89c30,-23 65,15 34,41l-115 83c-7,4 1,15 8,12l139 -91c29,-20 60,21 32,43l-144 92c-9,5 2,23 12,19l113 -62c28,-14 58,25 24,49l-184 99c-11,6 -11,19 1,22l83 16c36,11 28,62 -6,63 -83,1 -148,-3 -185,-15 -75,35 -116,95 -127,158 -54,177 45,360 205,440l-145 0c-16,-6 -33,-14 -50,-22 -286,-150 -349,-498 -3,-762 15,-30 46,-59 78,-90 45,-43 80,-83 114,-115l0 0z"/>
      <path class="fil4" d="M7787 5517c-15,92 37,171 145,207 182,62 348,-155 214,-332 46,-45 52,-91 1,-141l105 -60c78,59 130,135 157,226 55,254 -75,455 -266,519 -9,1 -18,1 -27,1l-90 0c-164,-80 -272,-241 -239,-420l0 0z"/>
     </g>
    </g>
   </g>
   <polygon class="fil5" points="697,2753 5413,2753 5413,3439 697,3439 "/>
   <path class="fil2" d="M5968 3319l58 0 0 -448 -51 0 -98 52 11 46 78 -42 2 0 0 392zm354 0l58 0 0 -448 -51 0 -98 52 11 46 78 -42 2 0 0 392zm237 27l193 -500 -48 0 -192 500 47 0zm490 -475l-215 0 -29 215c17,-2 37,-4 63,-4 89,0 128,41 128,99 1,60 -49,97 -105,97 -42,0 -78,-14 -97,-25l-15 46c22,14 63,28 112,28 97,0 167,-66 167,-153 0,-56 -29,-96 -65,-115 -27,-17 -61,-24 -96,-24 -17,0 -26,1 -37,2l17 -115 172 0 0 -51zm354 0l-215 0 -29 215c17,-2 37,-4 63,-4 89,0 128,41 128,99 1,60 -49,97 -105,97 -42,0 -78,-14 -97,-25l-15 46c22,14 63,28 112,28 97,0 167,-66 167,-153 0,-56 -29,-96 -64,-115 -28,-17 -62,-24 -97,-24 -17,0 -26,1 -37,2l18 -115 171 0 0 -51z"/>
  </g>
 </g>
</svg>
